# xmcd
# 
# Track frame offsets:
#     150
#     11024
#     22650
#     36416
#     49019
#     61973
#     72791
#     86484
#     98090
#     109485
#     120762
#     132690
#     144887
#     155888
#     166746
#     177819
#     187801
#     201691
#     212337
#     222047
#     231130
#     242129
#     253402
#     264338
#     273739
#     285030
#     294158
#     303729
#     313760
#     323205
#     341522
# 
# Disc length: 4679
# 
# Revision: 2
# Processed by: cddbd v1.5.2PL0 Copyright (c) Steve Scherf et al.
# Submitted via: fre:ac v1.0.17
# 
DISCID=c112451f
DTITLE=Screamin' Jay Hawkins - "Screamin' Jay Rocks"
DYEAR=2008
DGENRE=Blues
TTITLE0=Little Demon
TTITLE1=Baptize Me In Wine
TTITLE2=Not Anymore
TTITLE3=In My Front Room
TTITLE4=This Is All
TTITLE5=What That Is
TTITLE6=(She Put the) Wamee (On Me)
TTITLE7=Well I Tried
TTITLE8=Talk About Me
TTITLE9=Take Me Back
TTITLE10=I Is
TTITLE11=$10,000 Lincoln Continental
TTITLE12=You Ain't Foolin' Me
TTITLE13=Yellow Coat
TTITLE14=I Put a Spell On You
TTITLE15=Frenzy
TTITLE16=Alligator Wine
TTITLE17=There's Something Wrong With You
TTITLE18=Person To Person
TTITLE19=You Made Me Love You
TTITLE20=Little Demon (Alt.)
TTITLE21=Armpit No. 6
TTITLE22=Just Don't Care
TTITLE23=Strange
TTITLE24=The Whammy
TTITLE25=Party Doll
TTITLE26=All Night
TTITLE27=Mountain Jive
TTITLE28=Do You Really Love Me
TTITLE29=Please Don't Leave Me
TTITLE30=Knock-Kneed Nana
EXTD=
EXTT0=
EXTT1=
EXTT2=
EXTT3=
EXTT4=
EXTT5=
EXTT6=
EXTT7=
EXTT8=
EXTT9=
EXTT10=
EXTT11=
EXTT12=
EXTT13=
EXTT14=
EXTT15=
EXTT16=
EXTT17=
EXTT18=
EXTT19=
EXTT20=
EXTT21=
EXTT22=
EXTT23=
EXTT24=
EXTT25=
EXTT26=
EXTT27=
EXTT28=
EXTT29=
EXTT30=
PLAYORDER=
